<svg width="842" height="952" viewBox="0 0 842 952" fill="none" xmlns="http://www.w3.org/2000/svg">
<path d="M0 13.3547H53.5895C64.0642 13.3547 73.1672 23.9537 80.8986 45.1516C88.6299 66.3496 94.5843 97.7226 98.7617 139.271C103.002 180.819 105.121 232.118 105.121 293.168C105.121 346.163 103.906 390.466 101.474 426.079C99.0423 461.691 95.6443 491.157 91.2798 514.474C86.9777 537.368 81.9585 556.234 76.2224 571.073L65.4671 612.409H20.4818L20.2948 440.069H53.5895C57.7669 440.069 61.2273 434.982 63.9707 424.807C66.7141 414.632 68.7716 400.217 70.1433 381.563C71.5773 362.485 72.2943 339.803 72.2943 313.518C72.2943 286.808 71.5773 263.915 70.1433 244.836C68.7092 225.758 66.5894 211.132 63.7836 200.957C61.0402 190.782 57.6422 185.694 53.5895 185.694H32.8271V939.281H0V13.3547ZM74.5389 939.281L44.4241 529.737L79.2152 528.465L109.704 929.742V939.281H74.5389Z" fill="black"/>
<path d="M218.66 767.578V939.281H146.085V767.578H218.66ZM157.776 13.3547V939.281H124.949V13.3547H157.776ZM209.308 380.927V546.907H146.085V380.927H209.308ZM218.941 13.3547V185.694H146.085V13.3547H218.941Z" fill="black"/>
<path d="M309.566 625.764H342.299C341.863 690.205 339.306 747.016 334.63 796.195C329.954 845.374 323.47 883.743 315.177 911.3C306.947 938.433 297.22 952 285.998 952C276.895 952 268.758 941.613 261.588 920.839C254.48 900.065 248.432 870.176 243.444 831.172C238.518 792.167 234.746 744.896 232.128 689.357C229.571 633.819 228.293 571.285 228.293 501.756V451.516C228.293 381.987 229.634 319.453 232.315 263.915C235.058 207.952 238.924 160.468 243.912 121.464C248.962 82.0361 255.01 51.935 262.055 31.161C269.101 10.387 276.926 0 285.53 0C297.376 0 307.383 14.4146 315.551 43.2438C323.719 72.073 330.048 111.713 334.537 162.164C339.026 212.192 341.676 269.214 342.486 333.232H309.753C309.628 298.467 308.755 269.426 307.134 246.108C305.513 222.367 302.957 204.56 299.465 192.689C295.973 180.819 291.328 174.883 285.53 174.883C281.477 174.883 277.954 179.971 274.962 190.146C271.969 200.321 269.475 216.431 267.48 238.477C265.485 260.523 263.988 289.14 262.991 324.329C262.055 359.093 261.588 401.065 261.588 450.245V501.756C261.588 550.935 262.024 592.907 262.897 627.671C263.77 662.436 265.173 690.841 267.106 712.887C269.038 734.933 271.532 751.255 274.588 761.854C277.705 772.029 281.508 777.117 285.998 777.117C290.986 777.117 295.194 771.817 298.623 761.218C302.053 750.196 304.702 733.661 306.573 711.615C308.443 689.145 309.441 660.528 309.566 625.764Z" fill="black"/>
<path d="M473.046 457.876V495.396C473.046 566.197 471.581 629.791 468.651 686.178C465.783 742.14 461.699 790.048 456.399 829.9C451.099 869.328 444.833 899.641 437.601 920.839C430.368 941.613 422.387 952 413.658 952C404.867 952 396.824 941.613 389.529 920.839C382.296 899.641 375.999 869.328 370.637 829.9C365.337 790.048 361.222 742.14 358.292 686.178C355.424 629.791 353.99 566.197 353.99 495.396V457.876C353.99 387.075 355.424 323.481 358.292 267.094C361.222 210.708 365.306 162.8 370.544 123.372C375.843 83.5199 382.109 53.2069 389.342 32.4329C396.637 11.2349 404.68 0.635939 413.471 0.635939C422.2 0.635939 430.181 11.2349 437.414 32.4329C444.708 53.2069 451.006 83.5199 456.305 123.372C461.605 162.8 465.72 210.708 468.651 267.094C471.581 323.481 473.046 387.075 473.046 457.876ZM439.752 495.396V456.604C439.752 410.816 439.159 370.54 437.975 335.776C436.852 300.587 435.169 271.122 432.924 247.38C430.68 223.638 427.905 205.832 424.601 193.961C421.359 181.666 417.649 175.519 413.471 175.519C409.107 175.519 405.303 181.666 402.061 193.961C398.819 205.832 396.107 223.638 393.925 247.38C391.742 271.122 390.09 300.587 388.968 335.776C387.908 370.54 387.378 410.816 387.378 456.604V495.396C387.378 540.76 387.908 581.036 388.968 616.224C390.09 650.989 391.742 680.454 393.925 704.62C396.169 728.786 398.913 747.016 402.155 759.311C405.459 771.605 409.294 777.753 413.658 777.753C417.836 777.753 421.546 771.605 424.788 759.311C428.03 747.016 430.742 728.786 432.924 704.62C435.169 680.454 436.852 650.989 437.975 616.224C439.159 581.036 439.752 540.76 439.752 495.396Z" fill="black"/>
<path d="M490.068 13.3547H543.657C554.132 13.3547 563.235 23.9537 570.966 45.1516C578.698 66.3496 584.652 97.7226 588.83 139.271C593.069 180.819 595.189 232.118 595.189 293.168C595.189 346.163 593.973 390.466 591.542 426.079C589.11 461.691 585.712 491.157 581.348 514.474C577.045 537.368 572.026 556.234 566.29 571.073L555.535 612.409H510.55L510.363 440.069H543.657C547.835 440.069 551.295 434.982 554.038 424.807C556.782 414.632 558.839 400.217 560.211 381.563C561.645 362.485 562.362 339.803 562.362 313.518C562.362 286.808 561.645 263.915 560.211 244.836C558.777 225.758 556.657 211.132 553.851 200.957C551.108 190.782 547.71 185.694 543.657 185.694H522.895V939.281H490.068V13.3547ZM564.607 939.281L534.492 529.737L569.283 528.465L599.772 929.742V939.281H564.607Z" fill="black"/>
<path d="M659.253 939.281H629.045L629.232 767.578H659.253C665.488 767.578 670.757 757.403 675.059 737.053C679.423 716.703 682.728 686.39 684.973 646.114C687.28 605.414 688.433 555.386 688.433 496.032V455.968C688.433 411.452 687.778 372.448 686.469 338.955C685.222 305.039 683.351 276.845 680.857 254.375C678.364 231.482 675.246 214.311 671.505 202.864C667.826 191.418 663.587 185.694 658.786 185.694H628.484V13.3547H658.786C668.013 13.3547 676.462 24.1657 684.131 45.7876C691.862 66.9855 698.534 97.5106 704.145 137.363C709.819 176.791 714.183 223.638 717.238 277.905C720.356 331.748 721.915 391.526 721.915 457.24V496.032C721.915 561.322 720.356 621.1 717.238 675.367C714.183 729.634 709.85 776.481 704.239 815.909C698.627 855.337 691.987 885.862 684.318 907.484C676.711 928.682 668.356 939.281 659.253 939.281ZM647.843 13.3547V939.281H615.016V13.3547H647.843Z" fill="black"/>
<path d="M809.173 693.173C809.173 678.758 808.861 665.828 808.238 654.381C807.614 642.51 806.461 631.487 804.777 621.312C803.094 611.137 800.662 600.962 797.482 590.787C794.365 580.188 790.25 569.165 785.137 557.718C779.152 544.151 773.384 528.889 767.835 511.931C762.286 494.548 757.329 474.41 752.965 451.516C748.6 428.199 745.14 401.065 742.584 370.116C740.027 338.743 738.749 302.283 738.749 260.735C738.749 220.883 740.058 185.058 742.677 153.261C745.296 121.04 748.943 93.6949 753.619 71.2251C758.358 48.3313 763.907 30.949 770.267 19.0782C776.626 6.78335 783.578 0.635939 791.123 0.635939C801.099 0.635939 809.89 12.5068 817.497 36.2485C825.166 59.5662 831.151 92.847 835.453 136.091C839.818 178.911 842 229.574 842 288.08H809.36C809.36 264.762 808.643 244.2 807.209 226.394C805.837 208.588 803.749 194.597 800.943 184.422C798.137 174.247 794.614 169.16 790.375 169.16C786.259 169.16 782.799 173.399 779.993 181.878C777.188 190.358 775.068 201.805 773.634 216.219C772.2 230.21 771.483 245.684 771.483 262.643C771.483 276.633 772.044 289.352 773.166 300.799C774.351 311.822 776.003 322.209 778.123 331.96C780.305 341.711 782.924 351.038 785.979 359.941C789.096 368.844 792.588 377.536 796.454 386.015C803.686 401.701 810.108 419.295 815.72 438.798C821.393 457.876 826.163 479.71 830.029 504.299C833.957 528.465 836.919 556.022 838.914 586.971C840.971 617.92 842 652.897 842 691.901C842 733.449 840.815 770.334 838.446 802.554C836.077 834.775 832.679 862.121 828.252 884.591C823.825 906.636 818.525 923.383 812.353 934.83C806.18 946.277 799.291 952 791.684 952C784.701 952 777.811 946.065 771.015 934.194C764.281 921.899 758.171 903.245 752.684 878.231C747.197 852.794 742.802 820.361 739.497 780.933C736.255 741.08 734.634 693.809 734.634 639.118H767.555C767.555 666.252 768.085 689.145 769.145 707.8C770.204 726.454 771.763 741.504 773.821 752.951C775.878 763.974 778.403 772.029 781.396 777.117C784.389 781.78 787.818 784.112 791.684 784.112C795.861 784.112 799.228 780.085 801.785 772.029C804.341 763.55 806.211 752.527 807.396 738.961C808.581 724.97 809.173 709.707 809.173 693.173Z" fill="black"/>
</svg>
